<svg width="17" height="17" viewBox="0 0 17 17" fill="none" xmlns="http://www.w3.org/2000/svg">
<path d="M3.00065 16.9165C1.38982 16.9165 0.0839844 15.6107 0.0839844 13.9999C0.0839844 12.389 1.38982 11.0832 3.00065 11.0832C4.32165 11.0832 5.43754 11.9614 5.79633 13.1659L10.5007 13.166V11.4999L12.1673 11.4994V6.70269L10.2982 4.83268H5.50065V6.49989H0.500651V1.49989H5.50065V3.16602H10.2982L13.0007 0.464355L16.5361 3.99989L13.834 6.70102V11.4994L15.5007 11.4999V16.4999H10.5007V14.8327L5.79648 14.8334C5.43785 16.0381 4.32184 16.9165 3.00065 16.9165ZM3.00065 12.7499C2.31029 12.7499 1.75065 13.3095 1.75065 13.9999C1.75065 14.6903 2.31029 15.2499 3.00065 15.2499C3.69101 15.2499 4.25065 14.6903 4.25065 13.9999C4.25065 13.3095 3.69101 12.7499 3.00065 12.7499ZM13.834 13.1665H12.1673V14.8332H13.834V13.1665ZM13.0007 2.82137L11.8222 3.99989L13.0007 5.1784L14.1792 3.99989L13.0007 2.82137ZM3.83398 3.16656H2.16732V4.83322H3.83398V3.16656Z" fill="#7D4DEE"/>
</svg>
