<svg width="17" height="18" viewBox="0 0 17 18" fill="none" xmlns="http://www.w3.org/2000/svg">
<path d="M8.504 17.3356C3.90162 17.3356 0.170654 13.6047 0.170654 9.00224C0.170654 4.3999 3.90162 0.668945 8.504 0.668945C13.1063 0.668945 16.8373 4.3999 16.8373 9.00224C16.8373 13.6047 13.1063 17.3356 8.504 17.3356ZM8.504 15.6689C12.1859 15.6689 15.1707 12.6842 15.1707 9.00224C15.1707 5.32038 12.1859 2.33561 8.504 2.33561C4.82209 2.33561 1.83732 5.32038 1.83732 9.00224C1.83732 12.6842 4.82209 15.6689 8.504 15.6689ZM5.58732 10.6689H10.1707C10.4008 10.6689 10.5873 10.4824 10.5873 10.2522C10.5873 10.0222 10.4008 9.83557 10.1707 9.83557H6.83734C5.68673 9.83557 4.75399 8.9029 4.75399 7.75224C4.75399 6.60168 5.68673 5.66895 6.83734 5.66895H7.67067V4.00228H9.33734V5.66895H11.4207V7.33557H6.83734C6.6072 7.33557 6.42065 7.52215 6.42065 7.75224C6.42065 7.9824 6.6072 8.1689 6.83734 8.1689H10.1707C11.3213 8.1689 12.254 9.10165 12.254 10.2522C12.254 11.4029 11.3213 12.3356 10.1707 12.3356H9.33734V14.0022H7.67067V12.3356H5.58732V10.6689Z" fill="#7D4DEE"/>
</svg>
