<svg width="15" height="16" viewBox="0 0 15 16" fill="none" xmlns="http://www.w3.org/2000/svg">
<path d="M5.30463 6.90175C6.085 8.274 7.226 9.415 8.59825 10.1953L9.33533 9.16342C9.58042 8.82042 10.043 8.71442 10.413 8.9165C11.5853 9.55692 12.8809 9.94608 14.2324 10.0531C14.6658 10.0874 15 10.4491 15 10.8838V14.6028C15 15.0301 14.6768 15.3881 14.2518 15.4318C13.8102 15.4772 13.3647 15.5 12.9167 15.5C5.78299 15.5 0 9.717 0 2.58333C0 2.13522 0.0228501 1.68976 0.0682418 1.24813C0.111917 0.823125 0.46995 0.5 0.897208 0.5H4.61618C5.05092 0.5 5.41261 0.8342 5.44692 1.26757C5.55389 2.61907 5.94308 3.9147 6.5835 5.08703C6.78558 5.457 6.67958 5.91962 6.33658 6.16464L5.30463 6.90175ZM3.20354 6.35433L4.78683 5.22341C4.33789 4.25428 4.03023 3.22652 3.87273 2.16667H1.67422C1.66919 2.30527 1.66667 2.44417 1.66667 2.58333C1.66667 8.7965 6.7035 13.8333 12.9167 13.8333C13.0558 13.8333 13.1947 13.8308 13.3333 13.8257V11.6272C12.2735 11.4697 11.2457 11.1621 10.2766 10.7132L9.14567 12.2965C8.68817 12.1187 8.24633 11.9096 7.82283 11.6717L7.77442 11.6442C6.14142 10.7156 4.78445 9.35858 3.85583 7.72558L3.82828 7.67717C3.59041 7.25367 3.38128 6.81183 3.20354 6.35433Z" fill="#7D4DEE"/>
</svg>
